<svg viewBox="0 0 214 215" fill="none" xmlns="http://www.w3.org/2000/svg">
  <path d="M91.55 213.781c46.068 7.009 93.134-16.592 113.825-60.86q.654-1.401 1.265-2.81c1.711-3.947-2.864-7.128-6.327-4.567-50.584 37.425-87.695 42.814-115.696 18.036-21.218-18.775-43.549-24.783-71.716-15.766a4.14 4.14 0 0 0-2.494 5.726c10.366 21.847 28.142 40.351 51.815 51.365a108.5 108.5 0 0 0 18.835 6.738 63 63 0 0 1 10.494 2.138m44.847-203.045c2.676-2.167 1.878-6.376-1.457-7.248C95.405-6.851 53.49 6.279 26.881 36.456c-1.829 2.073-1.156 5.28 1.378 6.39 27.157 11.891 57.606 5.077 93.218-20.6 4.415-3.183 9.481-7.106 14.921-11.51" fill="#FFD57A"/>
  <path fill-rule="evenodd" clip-rule="evenodd" d="M12.2 57.864c1.093-2.098 3.697-2.868 5.741-1.671 4.376 2.563 8.69 5.631 12.983 9.186 27.015 22.37 60.314 20.426 103.49-7.373.954-.614 2.243-.333 2.829.64l1.149 1.908a2.585 2.585 0 0 0 3.542.88 2.57 2.57 0 0 0 .883-3.533l-1.383-2.297a2.01 2.01 0 0 1 .579-2.686c10.152-7.053 20.834-15.467 32.087-25.26 1.649-1.434 4.131-1.497 5.757-.037 3.787 3.4 7.299 7.043 10.522 10.892.741.885.55 2.204-.346 2.932q-1.392 1.13-2.643 2.416c-7.639 7.857-9.722 18.623-4.409 25.657 5.023 6.651 15.083 7.88 24.342 3.632 1.13-.518 2.5-.005 2.885 1.177a108 108 0 0 1 3.731 15.078c.255 1.478-.302 2.974-1.435 3.96-11.261 9.785-22.196 18.776-30.713 25.058a1.983 1.983 0 0 1-2.876-.582l-.72-1.196a2.585 2.585 0 0 0-3.542-.882 2.573 2.573 0 0 0-.884 3.534l1.044 1.733c.55.913.272 2.108-.617 2.697-45.122 29.899-76.423 32.393-106.257 8.616-19.349-15.422-38.886-21.476-62.34-16.379-2.696.586-5.386-1.248-5.503-3.999-.149-3.514-.125-7.047.076-10.585.083-1.472 1.763-2.337 3.23-2.203q.329.03.662.03c3.966 0 7.181-3.208 7.181-7.165q0-.272-.02-.54a3.43 3.43 0 0 1 1.404-2.978 7.15 7.15 0 0 0 3.036-5.851 7.13 7.13 0 0 0-2.003-4.964c-.696-.723-1.01-1.787-.847-2.777q.088-.526.088-1.078a6.6 6.6 0 0 0-2.976-5.52c-1.023-.675-1.718-1.946-1.235-3.073a109 109 0 0 1 3.508-7.397m155.927 42.064a2.585 2.585 0 0 0-3.542-.881 2.57 2.57 0 0 0-.883 3.534l4.892 8.122a2.584 2.584 0 0 0 3.542.881 2.57 2.57 0 0 0 .883-3.534zm-20.135-33.433a2.584 2.584 0 0 0-3.542-.881 2.57 2.57 0 0 0-.883 3.534l4.892 8.122a2.584 2.584 0 0 0 3.542.881 2.57 2.57 0 0 0 .883-3.533zm6.526 15.835a2.584 2.584 0 0 1 3.542.882l4.892 8.122a2.573 2.573 0 0 1-.883 3.534 2.585 2.585 0 0 1-3.542-.881l-4.892-8.123a2.57 2.57 0 0 1 .883-3.534" fill="#FFD57A"/>
  <path d="M104.508 100.544a2 2 0 0 1 2.79-.442l9.82 7.118a2 2 0 0 1 .443 2.797l-7.133 9.794a2 2 0 0 1-2.791.442l-9.819-7.118a2 2 0 0 1-.443-2.796z" fill="#F4B52A"/>
  <path d="M13.663 150.195c13.734-4.397 25.896-5.087 37.138-2.484 10.901 2.524 21.12 8.187 31.185 16.89l.974.851c14.562 12.886 31.589 17.947 51.415 14.907 19.679-3.016 41.991-13.986 67.426-32.804l-.001-.001c.831-.616 1.656-.493 2.169-.129.262.186.424.423.495.661.057.19.082.47-.051.857l-.067.173q-.299.689-.608 1.375l-.629 1.371c-20.185 43.188-66.079 66.244-111.037 59.469a65.3 65.3 0 0 0-10.538-2.147 106 106 0 0 1-17.126-6.027l-1.132-.519c-22.764-10.591-39.941-28.268-50.13-49.172l-.48-.998a1.636 1.636 0 0 1 .821-2.205zm.754-91.176a1.62 1.62 0 0 1 2.11-.747l.15.078c3.979 2.33 7.922 5.102 11.864 8.308l.788.647C43.303 78.875 59.006 84.21 76.78 83c17.568-1.197 36.964-8.776 58.581-22.634l.89 1.478a5.085 5.085 0 0 0 6.269 2.084 5.07 5.07 0 0 0-1.223 6.282l.13.228 4.891 8.122a5.085 5.085 0 0 0 6.269 2.084 5.074 5.074 0 0 0-1.222 6.283l.129.227 4.892 8.122a5.084 5.084 0 0 0 6.266 2.086 5.074 5.074 0 0 0-1.22 6.281l.13.227 4.891 8.123a5.085 5.085 0 0 0 6.267 2.086 5.07 5.07 0 0 0-1.221 6.28l.13.228.791 1.314c-22.234 14.68-40.798 22.439-57.286 23.771-16.204 1.309-30.672-3.568-44.955-14.747l-.68-.537c-19.514-15.552-39.476-21.952-63.292-17.107l-1.137.24c-1.292.28-2.299-.542-2.455-1.474l-.02-.188c-.143-3.351-.123-6.72.061-10.094a1 1 0 0 1 .374-.099l.147.001q.44.04.888.04c5.342 0 9.681-4.322 9.681-9.665a10 10 0 0 0-.007-.364l-.02-.362c-.017-.23.103-.517.276-.685l.077-.065a9.65 9.65 0 0 0 4.094-7.893 9.63 9.63 0 0 0-2.396-6.366l-.306-.332a.8.8 0 0 1-.19-.546l.01-.092q.12-.727.12-1.483a9.1 9.1 0 0 0-3.87-7.45l-.228-.156a1 1 0 0 1-.184-.16q-.023-.027-.039-.052.29-.674.59-1.347l.71-1.551q.735-1.569 1.513-3.102zm94.158 38.928a4.5 4.5 0 0 0-5.947.942l-.142.183-7.132 9.795a4.5 4.5 0 0 0 .812 6.152l.185.14 9.819 7.118a4.5 4.5 0 0 0 6.139-.81l.14-.184 7.132-9.795a4.5 4.5 0 0 0-.811-6.151l-.185-.141-9.819-7.118zm6.669 11.003-6.544 8.987-9.01-6.532 6.544-8.987zm60.497-79.406c.717-.624 1.693-.623 2.324-.161l.122.098a104 104 0 0 1 9.969 10.275 33 33 0 0 0-1.872 1.677l-.686.685c-8 8.228-10.861 20.136-4.903 28.51l.29.396c5.911 7.826 17.204 8.906 27.003 4.568a105 105 0 0 1 3.322 13.3l.166.936a1.79 1.79 0 0 1-.523 1.566l-.09.084c-11.035 9.589-21.724 18.382-30.097 24.59l-.43-.714a5.085 5.085 0 0 0-6.27-2.084 5.07 5.07 0 0 0 1.224-6.282l-.13-.227-4.891-8.122a5.086 5.086 0 0 0-6.268-2.087 5.07 5.07 0 0 0 1.222-6.28l-.13-.228-4.892-8.122a5.085 5.085 0 0 0-6.267-2.087 5.07 5.07 0 0 0 1.221-6.28l-.13-.227-4.891-8.123a5.086 5.086 0 0 0-6.27-2.085 5.07 5.07 0 0 0 1.224-6.281l-.129-.228-1.147-1.902c9.488-6.614 19.416-14.389 29.815-23.336zM28.756 38.109C54.543 8.866 95.055-3.99 133.403 5.674l.906.232c1.184.31 1.673 1.826.622 2.795l-.107.092c-4.74 3.838-9.181 7.297-13.142 10.21l-1.667 1.216C85.289 45.256 56.177 51.736 30.483 41.077l-1.221-.52a1.52 1.52 0 0 1-.632-2.288z" stroke="#F4B52A" stroke-width="5"/>
</svg>
